<?xml version="1.0" encoding="utf-8"?>
<!-- Generator: Adobe Illustrator 16.0.3, SVG Export Plug-In . SVG Version: 6.00 Build 0)  -->
<!DOCTYPE svg PUBLIC "-//W3C//DTD SVG 1.1//EN" "http://www.w3.org/Graphics/SVG/1.1/DTD/svg11.dtd">
<svg version="1.1" id="Capa_1" xmlns="http://www.w3.org/2000/svg" xmlns:xlink="http://www.w3.org/1999/xlink" x="0px" y="0px"
	 width="500px" height="500px" viewBox="0 0 500 500" enable-background="new 0 0 500 500" xml:space="preserve">
<path fill="#FF00EA" d="M433.059,171.87c-17.627-16.702-37.019-30.881-56.472-45.335c-33.483-24.878-66.998-50.59-93.43-83.035
	H102.5c-18.226,0-33,14.774-33,33v361c0,18.226,14.774,33,33,33h304c18.226,0,33-14.774,33-33V178.105
	C437.373,176.007,435.229,173.926,433.059,171.87z"/>
<path fill="#FCFCFC" d="M271,419c0,18.226-14.774,33-33,33H125c-18.226,0-33-14.774-33-33V101c0-18.226,14.774-33,33-33h113
	c18.226,0,33,14.774,33,33V419z"/>
<path fill="#FCFCFC" d="M408,424.914C408,440.149,389.481,453,365.838,453H259.459C235.815,453,216,440.149,216,424.914V212.586
	C216,197.351,235.815,186,259.459,186h106.379C389.481,186,408,197.351,408,212.586V424.914z"/>
<path fill="#FF00EA" d="M327,356c0,18.226-14.774,33-33,33H42c-18.226,0-33-14.774-33-33V238c0-18.226,14.774-33,33-33h252
	c18.226,0,33,14.774,33,33V356z"/>
<text transform="matrix(0.9037 0 0 1 20.9995 338.4473)" fill="#FFFFFF" font-family="'Verdana-Bold'" font-size="119.9967">RIFS</text>
</svg>
